<svg width="512pt" height="512pt" version="1.0" viewBox="0 0 512 512" xmlns="http://www.w3.org/2000/svg">
<g transform="translate(0 512) scale(.1 -.1)">
<path d="m2400 5091c0-33-17-41-90-41-62 0-262-38-391-74-580-160-1103-542-1444-1056-150-226-263-472-331-719-36-129-74-329-74-391 0-73-8-90-41-90h-29v-160-160h29c33 0 41-17 41-92 0-52 39-258 70-372 56-203 155-435 263-621 260-442 706-841 1167-1041 267-115 611-204 797-204 86 0 103-7 103-41v-29h85 85v30c0 17 1 30 3 31 1 0 52 4 112 9 141 11 220 24 350 55 929 224 1666 961 1890 1890 31 130 44 209 55 350 5 61 9 111 9 113 1 1 15 2 31 2h30v85 85h-29c-34 0-41 17-41 103 0 57-21 215-39 292-66 279-151 504-273 717-347 608-916 1049-1578 1224-124 33-293 64-350 64-73 0-90 8-90 41v29h-160-160v-29zm-142-556c3-52 6-46-213-510-21-44-97-208-170-365s-196-420-273-585c-76-165-149-320-160-345s-48-103-82-175c-34-71-86-182-115-245s-119-257-200-430-151-325-156-337c-8-21-15-23-72-23h-64l-56 117c-85 180-121 287-163 489-26 123-27 144-28 424-1 316 2 347 55 565 115 467 423 900 835 1175 243 162 611 301 784 297l75-2 3-50zm796 40c321-79 606-221 848-421 275-230 516-585 619-917 34-112 37-121 52-197 38-186 42-238 41-485 0-260-9-339-56-535-28-117-99-307-156-415l-47-90-116-6-25 58c-14 32-39 87-56 123s-88 189-158 340-147 316-170 365c-23 50-118 252-210 450s-244 524-338 725c-357 766-404 865-413 875-5 5-9 40-9 77v68h66c36 0 94-7 128-15zm-405-625c30-71 103-229 403-869 171-366 198-431 198-472 0-26-5-51-11-55-8-4-1243-9-1356-4-9 0-13 19-13 58 0 61 3 69 212 512 55 116 354 760 389 838l29 63 60-3 61-3 28-65zm863-1867c8-10 63-124 123-253s137-296 173-370c143-302 152-325 152-377 0-64-15-83-133-171-278-208-556-326-912-388-144-25-569-25-710 0-204 36-333 73-495 142-163 68-403 218-512 318-36 33-38 38-38 99s6 76 173 433c95 203 191 407 212 454 22 47 46 95 53 108l14 22h943c885 0 943-1 957-17z"/>
</g>
</svg>
