<?xml version="1.0" standalone="no"?>
<!DOCTYPE svg PUBLIC "-//W3C//DTD SVG 20010904//EN"
 "http://www.w3.org/TR/2001/REC-SVG-20010904/DTD/svg10.dtd">
<svg version="1.0" xmlns="http://www.w3.org/2000/svg"
 width="512.000000pt" height="512.000000pt" viewBox="0 0 512.000000 512.000000"
 preserveAspectRatio="xMidYMid meet">

<g transform="translate(0.000000,512.000000) scale(0.100000,-0.100000)"
fill="#000000" stroke="none">
<path d="M2265 4845 c-500 -65 -967 -296 -1330 -660 -313 -312 -522 -689 -620
-1115 -72 -311 -74 -691 -5 -1000 191 -867 868 -1554 1730 -1754 193 -45 253
-51 520 -51 273 0 330 6 535 55 842 202 1504 865 1705 1705 49 207 55 263 55
535 0 267 -6 327 -51 520 -218 938 -1011 1650 -1964 1765 -141 18 -440 17
-575 0z m-18 -512 c-3 -5 -79 -168 -170 -363 -150 -323 -477 -1024 -915 -1963
-189 -405 -166 -382 -234 -238 -273 583 -230 1254 116 1786 205 315 510 559
876 701 143 55 342 102 327 77z m781 -23 c613 -165 1083 -619 1268 -1227 98
-324 98 -721 0 -1044 -38 -124 -99 -273 -143 -348 l-27 -46 -37 80 c-21 44
-160 343 -310 665 -149 322 -353 758 -451 970 -99 212 -239 511 -310 665 -72
154 -134 288 -139 298 -14 25 15 23 149 -13z m-178 -1090 c157 -336 287 -615
288 -620 2 -6 -208 -10 -578 -10 -462 0 -581 3 -577 13 6 14 168 361 337 722
64 138 143 307 175 378 33 70 62 127 65 127 3 0 133 -275 290 -610z m576
-1237 c30 -65 123 -264 206 -442 l152 -323 -44 -37 c-337 -284 -740 -431
-1180 -431 -445 0 -838 146 -1195 443 l-29 24 83 179 c46 99 121 258 166 354
46 96 101 214 123 263 l41 87 811 0 811 0 55 -117z"/>
</g>
</svg>
