<svg xmlns="http://www.w3.org/2000/svg" version="1.0" viewBox="0 0 512 512"><path d="M240 2.9c0 3.3-1.7 4.1-9 4.1-6.2 0-26.2 3.8-39.1 7.4-58 16-110.3 54.2-144.4 105.6-15 22.6-26.3 47.2-33.1 71.9C10.8 204.8 7 224.8 7 231c0 7.3-.8 9-4.1 9H0v32h2.9c3.3 0 4.1 1.7 4.1 9.2 0 5.2 3.9 25.8 7 37.2 5.6 20.3 15.5 43.5 26.3 62.1 26 44.2 70.6 84.1 116.7 104.1 26.7 11.5 61.1 20.4 79.7 20.4 8.6 0 10.3.7 10.3 4.1v2.9h17v-3c0-1.7.1-3 .3-3.1.1 0 5.2-.4 11.2-.9 14.1-1.1 22-2.4 35-5.5 92.9-22.4 166.6-96.1 189-189 3.1-13 4.4-20.9 5.5-35 .5-6.1.9-11.1.9-11.3.1-.1 1.5-.2 3.1-.2h3v-17h-2.9c-3.4 0-4.1-1.7-4.1-10.3 0-5.7-2.1-21.5-3.9-29.2-6.6-27.9-15.1-50.4-27.3-71.7C439.1 75 382.2 30.9 316 13.4 303.6 10.1 286.7 7 281 7c-7.3 0-9-.8-9-4.1V0h-32v2.9zm-14.2 55.6c.3 5.2.6 4.6-21.3 51-2.1 4.4-9.7 20.8-17 36.5s-19.6 42-27.3 58.5c-7.6 16.5-14.9 32-16 34.5s-4.8 10.3-8.2 17.5c-3.4 7.1-8.6 18.2-11.5 24.5s-11.9 25.7-20 43-15.1 32.5-15.6 33.7c-.8 2.1-1.5 2.3-7.2 2.3h-6.4l-5.6-11.7c-8.5-18-12.1-28.7-16.3-48.9-2.6-12.3-2.7-14.4-2.8-42.4-.1-31.6.2-34.7 5.5-56.5 11.5-46.7 42.3-90 83.5-117.5 24.3-16.2 61.1-30.1 78.4-29.7l7.5.2.3 5zm79.6-4c32.1 7.9 60.6 22.1 84.8 42.1 27.5 23 51.6 58.5 61.9 91.7 3.4 11.2 3.7 12.1 5.2 19.7 3.8 18.6 4.2 23.8 4.1 48.5 0 26-.9 33.9-5.6 53.5-2.8 11.7-9.9 30.7-15.6 41.5l-4.7 9-11.6.6-2.5-5.8c-1.4-3.2-3.9-8.7-5.6-12.3s-8.8-18.9-15.8-34-14.7-31.6-17-36.5c-2.3-5-11.8-25.2-21-45s-24.4-52.4-33.8-72.5c-35.7-76.6-40.4-86.5-41.3-87.5-.5-.5-.9-4-.9-7.7V53h6.6c3.6 0 9.4.7 12.8 1.5zM264.9 117c3 7.1 10.3 22.9 40.3 86.9 17.1 36.6 19.8 43.1 19.8 47.2 0 2.6-.5 5.1-1.1 5.5-.8.4-124.3.9-135.6.4-.9 0-1.3-1.9-1.3-5.8 0-6.1.3-6.9 21.2-51.2 5.5-11.6 35.4-76 38.9-83.8l2.9-6.3 6 .3 6.1.3 2.8 6.5zm86.3 186.7c.8 1 6.3 12.4 12.3 25.3s13.7 29.6 17.3 37c14.3 30.2 15.2 32.5 15.2 37.7 0 6.4-1.5 8.3-13.3 17.1-27.8 20.8-55.6 32.6-91.2 38.8-14.4 2.5-56.9 2.5-71 0-20.4-3.6-33.3-7.3-49.5-14.2-16.3-6.8-40.3-21.8-51.2-31.8-3.6-3.3-3.8-3.8-3.8-9.9s.6-7.6 17.3-43.3c9.5-20.3 19.1-40.7 21.2-45.4 2.2-4.7 4.6-9.5 5.3-10.8l1.4-2.2h94.3c88.5 0 94.3.1 95.7 1.7z"/></svg>
