<?xml version="1.0" standalone="no"?>
<!DOCTYPE svg PUBLIC "-//W3C//DTD SVG 20010904//EN"
 "http://www.w3.org/TR/2001/REC-SVG-20010904/DTD/svg10.dtd">
<svg version="1.0" xmlns="http://www.w3.org/2000/svg"
 width="256.000000pt" height="256.000000pt" viewBox="0 0 256.000000 256.000000"
 preserveAspectRatio="xMidYMid meet">

<g transform="translate(0.000000,256.000000) scale(0.100000,-0.100000)"
fill="#000000" stroke="none">
<path d="M1086 2414 c-766 -138 -1181 -968 -828 -1657 226 -444 723 -695 1208
-612 771 133 1191 965 836 1658 -227 445 -732 698 -1216 611z m34 -250 c0 -11
-611 -1318 -621 -1328 -13 -14 -76 130 -98 226 -41 174 -36 329 16 491 46 146
114 260 222 368 107 107 214 172 361 220 85 28 120 35 120 23z m432 -20 c305
-96 533 -339 610 -651 30 -123 30 -303 0 -426 -21 -84 -83 -237 -97 -237 -4 0
-26 42 -49 93 -24 50 -163 349 -310 663 -146 315 -266 575 -266 578 0 11 29 6
112 -20z m-124 -538 c78 -167 142 -307 142 -310 0 -3 -131 -6 -291 -6 -273 0
-291 1 -284 18 21 55 280 602 285 602 3 0 70 -137 148 -304z m362 -777 l103
-220 -29 -25 c-168 -139 -361 -208 -584 -208 -225 0 -403 64 -589 213 l-25 19
104 221 103 221 407 0 407 0 103 -221z"/>
</g>
</svg>
